<svg width="24" height="24" viewBox="0 0 24 24" fill="none" xmlns="http://www.w3.org/2000/svg">
<path opacity="0.4" d="M22 15.94C22 18.73 19.76 20.99 16.97 21H16.96H7.05C4.27 21 2 18.75 2 15.96V15.95C2 15.95 2.006 11.524 2.014 9.298C2.015 8.88 2.495 8.646 2.822 8.906C5.198 10.791 9.447 14.228 9.5 14.273C10.21 14.842 11.11 15.163 12.03 15.163C12.95 15.163 13.85 14.842 14.56 14.262C14.613 14.227 18.767 10.893 21.179 8.977C21.507 8.716 21.989 8.95 21.99 9.367C22 11.576 22 15.94 22 15.94Z" fill="#0B7077"/>
<path d="M21.4761 5.67351C20.6101 4.04151 18.9061 2.99951 17.0301 2.99951H7.05013C5.17413 2.99951 3.47013 4.04151 2.60413 5.67351C2.41013 6.03851 2.50213 6.49351 2.82513 6.75151L10.2501 12.6905C10.7701 13.1105 11.4001 13.3195 12.0301 13.3195C12.0341 13.3195 12.0371 13.3195 12.0401 13.3195C12.0431 13.3195 12.0471 13.3195 12.0501 13.3195C12.6801 13.3195 13.3101 13.1105 13.8301 12.6905L21.2551 6.75151C21.5781 6.49351 21.6701 6.03851 21.4761 5.67351Z" fill="#0B7077"/>
</svg>
