<svg width="226" height="41" viewBox="0 0 226 41" fill="none" xmlns="http://www.w3.org/2000/svg">
<rect x="0.5" width="225.001" height="40.9759" rx="20.4879" fill="#FAFAFA"/>
<g clip-path="url(#clip0_8_8344)">
<rect x="89.3104" y="5.0885" width="29.1892" height="29.1892" rx="14.5946" transform="rotate(-0.173721 89.3104 5.0885)" fill="#FFE75C"/>
<path d="M111.805 34.6926C111.91 35.114 111.918 35.554 111.828 35.979C111.738 36.4042 111.552 36.803 111.286 37.1459C111.019 37.4886 110.677 37.7663 110.287 37.9576C109.897 38.149 109.469 38.2491 109.034 38.2504L103.098 38.2684L100.321 39.8336L100.321 39.7505C99.0546 39.7544 98.327 39.3414 98.8734 34.6903C98.6203 33.3833 97.4424 28.2392 96.7873 24.4012C96.1954 20.8951 97.4992 19.6042 101.105 17.5591C102.627 12.988 106.613 13.2457 107.389 15.9833C108.165 18.7208 110.733 30.3576 111.805 34.6926Z" fill="#66BCFF"/>
<path d="M111.805 34.6925C111.258 32.4524 110.291 28.304 109.387 24.4252L104.736 24.0865L101.153 26.6297L99.0858 29.4173L98.0316 30.8528C98.4106 32.6367 98.7261 34.0887 98.8526 34.711C98.3062 39.3622 99.034 39.7752 100.3 39.7713L103.97 38.2034L112.478 37.5757C112.268 36.6423 112.036 35.6674 111.805 34.6925Z" fill="#EB459F"/>
<path d="M102.285 32.3846C102.542 30.8354 102.402 29.5215 101.972 29.4501C101.543 29.3788 100.986 30.5769 100.729 32.1264C100.471 33.6756 100.611 34.9893 101.041 35.0606C101.471 35.132 102.028 33.9339 102.285 32.3846Z" fill="black"/>
<path d="M99.5604 28.5441C99.7668 28.1699 99.9942 27.7956 100.222 27.4628C102.557 24.0723 104.754 23.1523 106.871 23.1459L109.507 23.1379C109.547 23.1388 109.585 23.1491 109.62 23.1677C109.654 23.1863 109.684 23.213 109.706 23.2453C109.729 23.2776 109.743 23.3147 109.749 23.3537C109.754 23.3927 109.75 23.4324 109.737 23.4693L109.387 24.4252C105.339 24.4375 103.907 24.3173 100.555 27.8561L99.0858 29.4173L99.5604 28.5441Z" fill="#D11583"/>
<path d="M100.555 27.9806C99.165 28.2339 98.0671 28.9638 97.4483 30.2526C97.2726 30.6101 97.0182 30.9231 96.7039 31.1681L92.9759 33.8986C92.5569 34.1979 92.2656 34.6436 92.1594 35.1475C92.0534 35.6514 92.1403 36.1767 92.403 36.6195C92.5862 36.9303 92.8479 37.1873 93.1616 37.3648C93.4756 37.5424 93.8306 37.6343 94.1911 37.6311L95.7479 37.6264C98.9804 35.8108 100.471 34.5816 101.237 33.8735C102.003 33.1655 102.85 31.8967 102.7 30.4442C102.551 28.9917 102.132 27.6853 100.555 27.9806Z" fill="white"/>
<path d="M101.685 17.246C101.184 16.4173 100.517 15.3192 100.266 14.801C100.015 14.2829 99.4137 14.4092 100.272 16.7314C98.1937 15.9489 97.7587 16.2409 97.6558 16.5318C97.5529 16.8227 98.01 16.9666 98.8832 17.4621C99.7565 17.9576 100.692 18.5567 100.692 18.5567L101.685 17.246Z" fill="#66BCFF"/>
<path d="M103.844 17.3017C104.195 16.8647 104.319 16.387 104.11 16.2215C103.902 16.0561 103.674 16.1398 103.364 16.5559C103.23 16.7251 103.085 16.8851 102.93 17.0346C102.578 17.3678 102.661 17.6166 102.828 17.7614C102.994 17.9062 103.492 17.7387 103.844 17.3017Z" fill="black"/>
<path d="M107.368 16.0041C107.368 16.0041 104.895 14.8907 103.834 14.2089C102.774 13.5272 102.231 12.5117 102.707 12.2404C103.184 11.9692 104.1 12.6099 104.745 13.4382C104.72 11.9645 104.968 11.6524 105.363 11.6305C105.757 11.6085 105.8 12.1896 105.823 13.0198C105.847 13.85 105.993 14.1816 106.618 14.7402C106.991 15.0747 107.253 15.5158 107.368 16.0041Z" fill="#3442D9"/>
<path d="M98.3189 22.9228C97.7377 22.9245 97.238 22.4279 97.692 21.5547C98.146 20.6816 99.6377 19.8053 100.363 19.471C101.089 19.1366 101.422 19.4677 101.443 19.7168C101.465 19.9658 101.362 20.3397 100.845 21.0055C100.328 21.6713 99.3775 22.9196 98.3189 22.9228Z" fill="white"/>
<path d="M98.7751 22.8591L98.4226 22.9225L97.9193 21.2219L98.2089 20.9097L98.7751 22.8591Z" fill="#8CD9FF"/>
<path d="M100.059 21.9419L99.7698 22.2334L99.182 20.1387L99.4927 19.9302L100.059 21.9419Z" fill="#8CD9FF"/>
<path d="M101.217 20.4855L100.949 20.8599L100.529 19.4082L100.882 19.3448L101.217 20.4855Z" fill="#8CD9FF"/>
<path d="M100.757 19.1584C101.141 19.3407 101.537 19.4992 101.941 19.6322" stroke="black" stroke-linecap="round" stroke-linejoin="round"/>
<path d="M110.038 27.1631C109.64 26.8493 109.153 26.6691 108.646 26.6484C107.567 26.6517 106.968 27.7121 106.764 28.7298C106.731 28.8931 106.643 29.0399 106.515 29.1461C106.387 29.2524 106.226 29.3112 106.06 29.3132L105.914 29.3136C105.821 29.2967 105.731 29.261 105.652 29.2085C105.572 29.1563 105.504 29.0884 105.452 29.009C105.399 28.9297 105.363 28.8406 105.346 28.747C105.329 28.6532 105.331 28.5571 105.351 28.4643C105.74 26.4912 107.023 25.2211 108.642 25.2162C108.91 25.2187 109.169 25.3122 109.377 25.4813C109.585 25.6503 109.729 25.885 109.786 26.1468L110.038 27.1631Z" fill="white"/>
<path d="M111.805 34.6925C111.851 34.878 111.859 35.071 111.829 35.2595C111.798 35.4483 111.73 35.6289 111.627 35.7903C111.525 35.9517 111.391 36.0905 111.233 36.1985C111.075 36.3067 110.897 36.3816 110.71 36.4187L110.191 36.4618C109.008 36.4653 107.781 35.7633 106.823 34.5416C106.765 34.4654 106.723 34.3787 106.699 34.2864C106.675 34.1939 106.67 34.0978 106.683 34.0034C106.696 33.9089 106.728 33.8179 106.776 33.7357C106.825 33.6534 106.889 33.5816 106.965 33.5241C107.04 33.4638 107.127 33.4196 107.219 33.394C107.312 33.3686 107.409 33.3623 107.504 33.3755C107.6 33.3889 107.691 33.4214 107.774 33.4716C107.856 33.5216 107.927 33.5878 107.982 33.6663C108.649 34.5153 109.46 35.0317 110.187 35.0295C110.913 35.0273 111.348 34.6109 111.658 34.0703C111.7 34.2985 111.763 34.5058 111.805 34.6925Z" fill="#2331B5"/>
<path d="M110.396 28.7603C110.249 28.7616 110.107 28.8083 109.988 28.8942C109.869 28.9801 109.78 29.101 109.733 29.2398L108.869 31.5879C108.793 31.8084 108.795 32.0481 108.875 32.267C108.956 32.486 109.108 32.6707 109.308 32.7905C109.399 32.8456 109.5 32.88 109.606 32.8904C109.711 32.9011 109.818 32.8877 109.917 32.8515C110.017 32.8153 110.107 32.7571 110.181 32.6813C110.255 32.6056 110.311 32.5141 110.345 32.4137L110.901 30.8968C110.753 30.2122 110.585 29.507 110.396 28.7603Z" fill="#5865F2"/>
<path d="M109.308 32.7904C109.108 32.6706 108.956 32.486 108.875 32.267C108.795 32.0481 108.793 31.8083 108.869 31.5879L109.116 30.9437C109.157 30.8312 109.222 30.7291 109.307 30.6442C109.391 30.5594 109.493 30.494 109.606 30.4521C109.718 30.4105 109.838 30.3935 109.957 30.4025C110.077 30.4114 110.193 30.4462 110.298 30.5042C110.469 30.6035 110.6 30.759 110.669 30.9445C110.737 31.1299 110.739 31.3333 110.674 31.5201L110.345 32.4137C110.311 32.514 110.255 32.6055 110.181 32.6813C110.107 32.7571 110.017 32.8153 109.917 32.8515C109.818 32.8877 109.711 32.9011 109.606 32.8904C109.5 32.8799 109.399 32.8458 109.308 32.7904Z" fill="#FFE75C"/>
</g>
<g clip-path="url(#clip1_8_8344)">
<rect x="73.7429" y="5.13571" width="29.1892" height="29.1892" rx="14.5946" transform="rotate(-0.173721 73.7429 5.13571)" fill="#3442D9"/>
<path d="M80.2533 16.5869C79.3937 13.7666 78.933 12.4188 80.4665 11.5839C81.9999 10.7489 86.6719 11.2952 88.8529 11.8075C91.0339 12.3198 91.3469 12.8586 89.9212 15.0008L80.2533 16.5869Z" fill="#FFF4B3"/>
<path d="M79.334 41.9754C78.9765 33.5907 79.1629 26.6158 79.4215 22.8996C78.028 21.9905 77.3824 21.2867 77.1114 20.8932C77.0551 20.8174 77.0262 20.7247 77.0298 20.6302C77.0333 20.536 77.0687 20.4456 77.1305 20.3742C79.3224 17.6069 81.2039 15.1934 83.1724 14.0665C85.1409 12.9397 87.8384 12.6409 92.148 16.9038C92.1892 16.9584 92.2098 17.0258 92.2063 17.0941C92.2027 17.1627 92.1751 17.2275 92.1284 17.2775C91.7881 17.6172 91.4288 17.9372 91.0519 18.2355C91.9284 19.7896 93.2017 22.1521 93.2017 22.1521L94.1981 22.149C94.8365 22.1471 95.4498 22.3989 95.9027 22.8492C96.3557 23.2993 96.6112 23.9108 96.6131 24.5495C96.6397 26.4798 96.1901 28.806 95.3067 31.7976C99.3018 35.0236 98.347 41.897 98.347 41.897L79.334 41.9754Z" fill="#29CC7A"/>
<path d="M95.3067 31.7976C95.4299 31.3613 95.5532 30.9666 95.6558 30.5511L92.5268 32.3042C92.5268 32.3042 87.5558 28.9774 79.2261 26.927C79.0925 30.7882 79.0876 36.0189 79.334 41.9754L98.3471 41.9177C98.3471 41.9177 99.3018 35.0235 95.3067 31.7976Z" fill="#8CD9FF"/>
<path d="M96.0977 32.5632C95.8549 32.2872 95.5903 32.0313 95.3067 31.7976C95.4299 31.3613 95.5532 30.9666 95.6557 30.5511L92.5268 32.3042C92.5268 32.3042 87.5558 28.9774 79.2261 26.927C79.2068 27.4044 79.1876 27.9234 79.1892 28.4423C85.5695 31.0591 89.008 35.5737 89.4217 41.9448L94.1335 41.9305C94.9527 38.2748 95.6072 35.0763 96.0977 32.5632Z" fill="#BAE8FF"/>
<path d="M81.7302 24.4908L81.8133 24.4906C81.8546 24.4489 81.8961 24.4281 81.9167 24.3657L83.7048 18.5276C83.7168 18.5031 83.7235 18.4763 83.7241 18.4489C83.7246 18.4217 83.7193 18.3945 83.7083 18.3697C83.6974 18.3446 83.6809 18.3222 83.6605 18.3042C83.6399 18.2862 83.6158 18.273 83.5894 18.2654C83.5633 18.2578 83.5356 18.256 83.5087 18.26C83.4817 18.2643 83.456 18.2743 83.4332 18.2895C83.4106 18.3048 83.3916 18.3247 83.3773 18.3482C83.3633 18.3715 83.3544 18.3977 83.3516 18.4249L81.6252 24.076C80.8709 23.757 80.1472 23.37 79.463 22.9202L79.4215 22.9203C79.4218 23.0449 79.4015 23.1902 79.4019 23.3148C80.1204 23.774 80.8788 24.1677 81.668 24.491L81.7302 24.4908Z" fill="black"/>
<path d="M89.4233 15.0854L81.9941 15.6476C90.3015 17.2 90.6551 17.4272 89.4233 15.0854Z" fill="black"/>
<path d="M87.5826 20.49C87.8691 20.3733 87.9191 19.8309 87.6941 19.2789C87.4691 18.727 87.0545 18.3741 86.7678 18.4908C86.4811 18.6077 86.4313 19.1499 86.6563 19.7019C86.8811 20.254 87.2959 20.6069 87.5826 20.49Z" fill="black"/>
<path d="M89.7258 21.6312C90.0938 20.931 90.0467 20.1818 89.6205 19.9579C89.1943 19.7338 88.5506 20.1199 88.1824 20.8199C87.8144 21.5201 87.8617 22.2693 88.2877 22.4934C88.7139 22.7174 89.3579 22.3314 89.7258 21.6312Z" stroke="white" stroke-miterlimit="10"/>
<path d="M92.7823 21.6261C93.1503 20.9261 93.1032 20.1769 92.677 19.9528C92.2508 19.7289 91.6071 20.1148 91.2391 20.815C90.8711 21.5152 90.9182 22.2644 91.3444 22.4883C91.7706 22.7123 92.4144 22.3263 92.7823 21.6261Z" stroke="white" stroke-miterlimit="10"/>
<path d="M90.6792 20.3803C90.8703 20.3025 90.8499 19.8092 90.6335 19.2783C90.4173 18.7476 90.087 18.3803 89.8958 18.4583C89.7049 18.5361 89.7253 19.0295 89.9415 19.5604C90.1579 20.0911 90.4883 20.4583 90.6792 20.3803Z" fill="black"/>
<path d="M92.6732 25.8068C91.0706 25.8168 89.5138 25.2715 88.268 24.2634C86.9779 23.2087 87.4964 23.0826 88.3059 23.0594C89.1153 23.0362 92.9973 23.1697 94.1186 23.3323C95.24 23.495 95.4543 25.7153 92.6732 25.8068Z" fill="#912869"/>
<path d="M92.6732 25.8068C91.0706 25.8168 89.5138 25.2715 88.268 24.2634C86.9779 23.2087 87.4964 23.0826 88.3059 23.0594C89.1153 23.0362 92.9973 23.1697 94.1186 23.3323C95.24 23.495 95.4543 25.7153 92.6732 25.8068Z" fill="#611B46"/>
<path d="M92.5972 28.1318L92.5118 27.3641C93.0981 27.3156 93.669 27.1516 94.1917 26.8816" stroke="black" stroke-linecap="round" stroke-linejoin="round"/>
<path d="M93.4408 25.7007C92.3167 24.6248 90.799 23.8198 87.9974 24.0152C90.4119 26.2288 92.9223 25.8476 93.4408 25.7007Z" fill="#EB459F"/>
<path d="M89.8561 20.896L91.1222 20.8922" stroke="white" stroke-miterlimit="10"/>
<path d="M87.9472 21.1508L82.5853 18.9876C82.4729 18.9444 82.3516 18.9292 82.2321 18.9428C82.1124 18.9567 81.9979 18.9992 81.8981 19.0667C81.7985 19.1343 81.7165 19.225 81.6596 19.3311C81.6024 19.4371 81.5718 19.5553 81.5703 19.6757C81.5683 19.8175 81.609 19.9564 81.6872 20.0747C81.7651 20.1928 81.8771 20.2848 82.0082 20.3386L82.3616 20.5036" stroke="white" stroke-miterlimit="10" stroke-linecap="round"/>
<path d="M86.8181 18.4351C87.2393 18.4446 87.6597 18.3873 88.063 18.2653" stroke="black" stroke-miterlimit="10" stroke-linecap="round"/>
<path d="M89.9317 18.4257C90.1972 18.4317 90.4604 18.3741 90.6991 18.2573" stroke="black" stroke-miterlimit="10" stroke-linecap="round"/>
<path d="M80.9569 15.8582C88.3667 15.732 90.8757 14.8941 92.9906 14.1197C95.1054 13.3453 94.8961 12.744 93.2772 12.8111C91.6584 12.8783 86.1228 15.0123 80.9569 15.8582Z" fill="#FFF4B3"/>
<path d="M80.9568 15.8583L83.4885 15.643L89.5666 14.4207L88.0468 12.9308L80.8027 12.9528L80.9568 15.8583Z" fill="#FFF4B3"/>
<path d="M93.2473 23.4803L91.7941 23.4017C91.9628 24.2729 92.3793 24.7283 92.7317 24.582C93.0841 24.4356 93.2063 23.6672 93.2473 23.4803Z" fill="white"/>
<path d="M88.7633 23.3071C88.9531 24.3028 89.3283 24.8206 89.6807 24.6535C90.0331 24.4864 90.1136 23.6558 90.1748 23.3235L88.7633 23.3071Z" fill="white"/>
<path d="M90.4147 13.4426C87.2181 14.3094 83.9775 15.0051 80.7068 15.5269" stroke="#FFC619" stroke-width="2" stroke-miterlimit="10" stroke-linecap="round"/>
</g>
<g clip-path="url(#clip2_8_8344)">
<rect x="52.3406" y="6.17352" width="29.1892" height="29.1892" rx="14.5946" transform="rotate(-0.173721 52.3406 6.17352)" fill="#7196FF"/>
<path d="M63.3166 31.0908L62.6773 31.7285L67.3476 36.3313L67.9869 35.6935L63.3166 31.0908Z" fill="#2E3338"/>
<path d="M66.2278 31.0889L65.5885 31.7266L70.2587 36.3293L70.8981 35.6916L66.2278 31.0889Z" fill="#2E3338"/>
<path d="M71.471 30.274C72.6731 29.0692 73.4145 27.4869 73.5677 25.799C73.721 24.1111 73.2763 22.423 72.3105 21.025L69.2807 16.6356L65.7122 16.6464L65.7292 22.2569C65.7307 22.7443 65.5368 23.2122 65.1904 23.5579C64.8438 23.9035 64.373 24.0985 63.8814 24.1L58.1443 24.1174L58.1481 25.3881C58.1538 27.2564 58.9064 29.0461 60.2409 30.3649C61.5754 31.6838 63.383 32.4242 65.2672 32.4236L66.312 32.4204C68.2479 32.3984 70.0989 31.6284 71.471 30.274Z" fill="#FFD836"/>
<path d="M69.2744 14.5832C70.2208 14.5804 71.1296 14.9504 71.8008 15.6119C72.472 16.2735 72.8507 17.1723 72.8536 18.1107L72.8564 19.0295L65.7193 19.0511L65.7165 18.1128C65.7189 17.1778 66.0945 16.2816 66.7612 15.6203C67.4278 14.9589 68.3314 14.5861 69.2744 14.5832Z" fill="#FFD836"/>
<path d="M73.8973 17.7165C74.0696 17.8844 74.2058 18.0851 74.2979 18.3065C74.3901 18.528 74.4363 18.7656 74.4335 19.0051L71.0227 19.0154C70.896 19.0133 70.7725 18.9745 70.6678 18.9038C70.5629 18.833 70.4812 18.7335 70.4327 18.6173C70.3842 18.5012 70.3709 18.3735 70.3946 18.25C70.4183 18.1265 70.4778 18.0125 70.5659 17.9221L71.254 17.2358L71.251 16.2584C71.2505 16.1321 71.2993 16.0105 71.3872 15.9191C71.4752 15.8277 71.5954 15.7737 71.7226 15.7682C71.8526 15.7748 71.9771 15.8224 72.0779 15.904L73.8973 17.7165Z" fill="#FF9A15"/>
<path d="M69.2744 14.5831L68.2294 14.5863C66.9433 14.5886 65.7085 14.0863 64.7947 13.1892L64.2803 12.6238L64.2813 12.9757C64.2848 14.1163 64.7451 15.2088 65.561 16.0129C66.3768 16.8169 67.4814 17.2667 68.6318 17.2632L69.2627 17.2613L69.2744 14.5831Z" fill="#FFD836"/>
<path d="M64.2123 16.2014L67.071 16.1927L67.0796 19.0272L64.2123 16.2014Z" fill="#FFD836"/>
<path d="M59.8084 26.8492C60.345 27.9768 61.299 28.856 62.4724 29.3042C63.6458 29.7524 64.9482 29.7353 66.1091 29.2561C67.2699 28.777 68.2002 27.8728 68.7063 26.7315C69.2124 25.5901 69.2556 24.2993 68.8269 23.1272L59.8084 26.8492Z" fill="#FF9A15"/>
<path d="M54.9801 20.9992L57.215 23.2992C57.5083 23.5846 57.7418 23.9248 57.902 24.3C58.0622 24.6754 58.1459 25.0783 58.1482 25.4858L59.7452 25.481L59.7418 24.3668C59.7381 23.7441 59.5262 23.1403 59.1395 22.6498C58.7527 22.1593 58.2128 21.8098 57.6043 21.656L54.9801 20.9992Z" fill="#FFD836"/>
<path d="M59.1911 24.8181L59.0142 24.9945C58.9416 25.064 58.85 25.1107 58.7508 25.1287C58.6515 25.1468 58.5491 25.1355 58.4565 25.0961C58.3636 25.0567 58.2847 24.991 58.2295 24.9074C58.1742 24.8237 58.145 24.7258 58.1456 24.6257L58.13 19.4845L59.178 20.5174C59.7481 21.0896 60.0689 21.8607 60.0714 22.665C60.0738 23.4693 59.7577 24.2425 59.1911 24.8181Z" fill="#FFD836"/>
<path d="M69.4993 17.2606C69.7498 17.2599 69.9522 17.0579 69.9514 16.8096C69.9507 16.5613 69.7471 16.3606 69.4966 16.3614C69.2461 16.3621 69.0437 16.5641 69.0445 16.8124C69.0452 17.0607 69.2488 17.2614 69.4993 17.2606Z" fill="#202225"/>
</g>
<g clip-path="url(#clip3_8_8344)">
<rect x="31.4232" y="6.72339" width="29.1892" height="29.1892" rx="14.5946" transform="rotate(-0.173721 31.4232 6.72339)" fill="#FF78B9"/>
<path d="M55.2227 40.9592C56.2083 38.8764 53.5382 35.5464 49.2587 33.521C44.9793 31.4957 40.711 31.5422 39.7254 33.6251C38.7397 35.7077 41.4098 39.0379 45.6894 41.0632C49.9687 43.0884 54.237 43.0418 55.2227 40.9592Z" fill="black"/>
<path d="M55.7418 29.4416C54.4732 28.6567 54.411 28.6776 53.7015 27.4136C52.9919 26.1496 52.0975 25.5296 51.0592 25.3875L52.3744 34.7033C55.0751 35.4839 56.7315 34.1089 57.101 32.7586C57.4706 31.4083 57.0311 30.2264 55.7418 29.4416Z" fill="#3442D9"/>
<path d="M54.4793 30.67C54.1218 29.1558 53.1824 27.3944 52.0783 26.0693C51.6826 25.5906 51.4013 25.0279 51.2557 24.424C51.11 23.8203 51.1037 23.1912 51.2374 22.5847L51.6878 20.5076C52.0045 19.066 51.8287 17.5599 51.1889 16.2299C50.5489 14.8998 49.4816 13.8227 48.1576 13.1704C47.3978 12.7992 46.5715 12.583 45.7271 12.5343C44.1383 12.4228 42.5685 12.9347 41.3509 13.9615C40.1333 14.9883 39.3638 16.4491 39.2054 18.0339C39.1718 18.3024 39.1587 18.5731 39.1664 18.8435L39.1691 19.7361L39.2219 23.4722C39.272 25.1506 38.9213 26.8166 38.1988 28.3323C37.8988 28.9337 37.671 29.5686 37.5195 30.2233L47.7023 40.986C52.5361 40.1618 55.5524 35.4824 54.4793 30.67Z" fill="#3442D9"/>
<path d="M47.7231 40.9858C52.5362 40.1617 55.5525 35.4823 54.4793 30.6699C54.1428 29.2387 53.2868 27.5808 52.2658 26.2969" stroke="black" stroke-miterlimit="10" stroke-linecap="round"/>
<path d="M51.2422 30.9912C52.1922 29.4108 52.5665 29.6172 54.2699 30.0687C55.6409 30.4174 57.2269 33.2148 55.1348 34.6326C53.0426 36.0504 48.7642 35.2123 51.2422 30.9912Z" fill="#3442D9"/>
<path d="M46.4962 26.3533C46.6871 26.2064 46.717 25.9255 46.5632 25.7254C46.4094 25.5256 46.1301 25.4826 45.9394 25.6293C45.7487 25.7763 45.7186 26.0572 45.8724 26.257C46.0262 26.4571 46.3055 26.5 46.4962 26.3533Z" fill="black"/>
<path d="M49.1112 26.5076C49.3019 26.3609 49.332 26.0798 49.1782 25.88C49.0244 25.6801 48.7451 25.637 48.5541 25.7839C48.3634 25.9306 48.3333 26.2117 48.4871 26.4116C48.6409 26.6114 48.9202 26.6546 49.1112 26.5076Z" fill="black"/>
<path d="M48.8406 26.1829C51.0671 28.0027 50.1577 29.3132 51.951 32.0061" stroke="white" stroke-miterlimit="10" stroke-linecap="round"/>
<path d="M46.3414 30.2795C47.7085 29.3206 48.1228 29.0495 48.6418 29.0687L49.9913 29.1891L49.6551 34.6699L46.2299 34.5765L46.3414 30.2795Z" fill="#FFC619"/>
<path d="M52.9794 28.8687C53.0051 28.7962 53.0134 28.7185 53.004 28.6422C52.9946 28.5658 52.9676 28.4926 52.9253 28.4284C52.8828 28.3642 52.8262 28.3106 52.7596 28.272C52.6929 28.2334 52.6183 28.2107 52.5415 28.2058L50.2572 27.8806C50.0915 27.8635 49.9248 27.9038 49.7853 27.995C49.6457 28.0861 49.5417 28.2224 49.4907 28.3811L48.2183 33.159C48.1928 33.2318 48.1843 33.3092 48.1937 33.3856C48.203 33.4619 48.23 33.5351 48.2724 33.5993C48.3149 33.6635 48.3715 33.7171 48.4383 33.7557C48.5048 33.7944 48.5794 33.817 48.6562 33.8219L50.9404 34.1471C51.1063 34.1642 51.2729 34.1239 51.4125 34.0328C51.5519 33.9416 51.6559 33.8054 51.7069 33.6466L52.9794 28.8687Z" fill="black"/>
<path d="M52.8741 28.3917L53.1241 28.6815L52.4393 28.7459L52.8741 28.3917Z" fill="black"/>
<path d="M54.0046 31.5432C53.7125 31.0666 53.4409 30.4655 52.6518 30.3434L52.551 31.34L54.0046 31.5432Z" fill="#FFC619"/>
<path d="M53.2085 29.1378C53.2301 29.0653 53.2354 28.9889 53.2242 28.914C53.213 28.8391 53.1856 28.7676 53.1439 28.7044C53.1022 28.6413 53.0472 28.5881 52.9827 28.5484C52.9183 28.5088 52.8457 28.4837 52.7706 28.475L50.4656 28.1498C50.3005 28.1364 50.1354 28.1784 49.9968 28.269C49.8581 28.3597 49.7532 28.4937 49.6991 28.6503L48.4267 33.4283C48.4051 33.5008 48.3997 33.5772 48.4109 33.6521C48.4222 33.727 48.4496 33.7985 48.4913 33.8617C48.533 33.9249 48.588 33.9782 48.6524 34.0177C48.7171 34.0574 48.7894 34.0825 48.8646 34.0912L51.1695 34.3955C51.3311 34.4216 51.4966 34.3868 51.6342 34.2984C51.7717 34.2098 51.872 34.0737 51.9153 33.9158L53.2085 29.1378Z" fill="white"/>
<path d="M52.5085 31.0289L53.4429 31.1713C53.6323 31.1917 53.8059 31.2856 53.9267 31.4326C54.0476 31.5798 54.1057 31.7686 54.0888 31.9581C54.0843 32.0567 54.0593 32.1533 54.0153 32.2417C53.9712 32.3298 53.9092 32.408 53.8332 32.4708C53.757 32.5337 53.6687 32.5798 53.5735 32.6063C53.4785 32.6329 53.3789 32.6392 53.2813 32.6248L52.596 32.5231C52.3832 32.4932 52.1861 32.3938 52.0353 32.2404C51.8848 32.0869 51.7891 31.8881 51.7632 31.6746C51.7577 31.5795 51.7742 31.4844 51.8113 31.3967C51.8484 31.309 51.9052 31.231 51.9771 31.1685C52.0491 31.1062 52.1345 31.0611 52.2266 31.037C52.3187 31.0128 52.4152 31.01 52.5085 31.0289Z" fill="#FFC619"/>
<path d="M52.2014 32.4204L52.8451 32.5222C52.9529 32.5356 53.0564 32.572 53.1485 32.6293C53.2406 32.6865 53.3191 32.7633 53.3786 32.8538C53.4382 32.9445 53.4773 33.0471 53.4932 33.1544C53.5091 33.2617 53.5013 33.3711 53.4707 33.4752C53.427 33.6426 53.3216 33.7874 53.1755 33.8802C53.0295 33.973 52.8538 34.0072 52.6835 33.9757L52.2889 33.9146C52.0736 33.8856 51.8736 33.787 51.7195 33.6339C51.5655 33.4807 51.4657 33.2814 51.4353 33.0662C51.429 32.9689 51.4457 32.8717 51.4839 32.7819C51.5222 32.6923 51.5809 32.6128 51.6554 32.5499C51.73 32.4872 51.8181 32.4428 51.913 32.4203C52.0078 32.3978 52.1066 32.3979 52.2014 32.4204Z" fill="#FFC619"/>
<path d="M50.1951 34.7928L47.9525 34.4882L48.0535 33.5746L50.2962 33.8999L50.1951 34.7928Z" fill="#FFC619"/>
<path d="M50.7237 31.1588L49.3116 30.9555C49.2444 30.9466 49.1812 30.9183 49.1294 30.8745C49.0777 30.8304 49.0398 30.7724 49.0203 30.7073L48.8946 30.334L48.7885 29.5664L48.0287 32.2671L50.3129 32.5922C50.5256 32.62 50.7413 32.5754 50.9255 32.4656C51.1097 32.3559 51.2516 32.1875 51.3282 31.9872C51.3526 31.8923 51.3556 31.7931 51.3373 31.6968C51.3187 31.6005 51.2792 31.5095 51.2215 31.4304C51.1637 31.3511 51.089 31.2857 51.0031 31.2389C50.9171 31.1918 50.8217 31.1645 50.7237 31.1588Z" fill="#FFC619"/>
<path d="M50.2713 32.5716L48.0287 32.2671L48.137 33.7612L49.8606 34.0051C50.0709 34.0358 50.2852 33.992 50.4667 33.8816C50.6482 33.7713 50.7855 33.6008 50.8551 33.4001C50.8832 33.3066 50.8898 33.208 50.8743 33.1115C50.8587 33.0151 50.8212 32.9236 50.7651 32.8437C50.7089 32.7639 50.6352 32.698 50.5495 32.6507C50.4641 32.6036 50.3689 32.5765 50.2713 32.5716Z" fill="#FFC619"/>
<path d="M66.1988 41.6771C66.2542 39.4352 64.4058 39.0879 63.1373 38.303C61.8687 37.5181 60.3692 35.8621 58.8091 34.746C57.2489 33.6298 55.8998 33.6547 53.2662 34.4722L56.2936 40.3164C57.9983 41.1831 58.3748 42.1367 59.292 43.4209C60.2092 44.705 61.4354 45.1995 62.6593 44.9674C63.306 46.0241 63.4313 46.2728 64.3643 45.9378C65.2974 45.6029 66.8312 44.8925 67.2426 43.6666C67.6541 42.4407 67.0515 42.235 66.1988 41.6771Z" fill="#66BCFF"/>
<path d="M56.1586 36.8711C55.8823 37.7631 55.7043 38.6823 55.6272 39.6127" stroke="black" stroke-width="2" stroke-miterlimit="10" stroke-linecap="round"/>
<path d="M57.416 47.661C55.5323 49.3687 53.9326 48.8962 53.1851 48.8154C52.4376 48.7346 52.519 48.1947 52.4553 47.7383C52.3917 47.2818 52.3481 46.597 52.3481 46.597C50.4588 46.4781 50.2266 45.1919 50.1816 44.0504C50.1367 42.9089 49.8456 42.7438 49.6978 41.9347C47.4191 41.5325 45.2639 40.6112 43.3987 39.2417C41.5334 37.8724 40.0089 36.0918 38.9426 34.0382L40.9101 32.6L45.3192 35.4511C48.2841 34.342 49.9222 33.7766 51.5201 33.668C53.1181 33.5593 54.6974 34.1565 55.223 36.3759C55.7487 38.5953 55.813 39.28 56.2936 40.3372C56.419 40.6066 56.6277 40.9796 56.8365 41.3734C57.4212 42.5547 58.0282 44.2135 56.8506 46.0229C56.9965 46.5827 57.1856 47.1305 57.416 47.661Z" fill="#8CD9FF"/>
<path d="M42.1726 38.2212C42.1059 36.7477 42.6632 35.7081 43.6798 35.539L41.1005 33.7617L39.2349 34.5769C39.7163 35.9039 40.9454 37.3531 42.1726 38.2212Z" fill="black"/>
<path d="M46.382 29.9889C45.7785 29.4718 45.322 29.5147 44.5964 29.8282C43.8263 29.1248 42.8297 29.0241 41.7929 29.3801C40.7562 29.7361 39.1593 30.2184 38.226 30.4703C38.174 30.4899 38.1173 30.4941 38.0629 30.4824C38.0085 30.4705 37.9586 30.4435 37.9191 30.4044C37.8797 30.365 37.8524 30.3153 37.8404 30.261C37.8282 30.2066 37.8321 30.1499 37.8513 30.0978L38.5287 27.6049C36.3128 29.2722 35.5971 32.8238 36.3086 34.752C37.0202 36.6802 40.0921 36.6502 41.0661 36.1075C42.04 35.5649 42.3716 35.3978 43.4931 35.602C44.6146 35.8062 45.4868 35.9488 46.9571 34.8235L47.828 34.5303C48.1544 32.6404 47.8597 31.2713 46.382 29.9889Z" fill="#3442D9"/>
<path d="M46.3821 29.9888C45.7786 29.4717 45.3221 29.5146 44.5966 29.8281C43.8264 29.1247 42.8298 29.024 41.793 29.38C40.7563 29.736 39.1595 30.2182 38.2262 30.4702" stroke="black" stroke-miterlimit="10" stroke-linecap="round"/>
<path d="M44.5964 29.8282C45.2179 30.3064 45.7359 30.9055 46.1197 31.5891C46.5035 32.273 46.7449 33.0274 46.8295 33.8067" stroke="black" stroke-miterlimit="10" stroke-linecap="round"/>
<path d="M50.8839 29.1865C50.8932 29.1578 50.8962 29.1275 50.8926 29.0974C50.889 29.0675 50.8789 29.0387 50.8629 29.0132C50.847 28.9875 50.8258 28.9656 50.8006 28.9491C50.7754 28.9325 50.747 28.9216 50.7171 28.9171L50.5095 28.9178C50.4518 28.9053 50.3914 28.9158 50.3412 28.9469C50.2909 28.978 50.2547 29.0273 50.2402 29.0846L50.0554 29.7702C50.046 29.8005 50.0436 29.8325 50.0485 29.8638C50.0533 29.8951 50.0652 29.9248 50.0832 29.9509C50.1013 29.9768 50.1252 29.9983 50.1529 30.0138C50.1805 30.029 50.2115 30.0379 50.2431 30.0394L50.4506 30.0388C50.5052 30.0457 50.5604 30.0325 50.6062 30.0018C50.6518 29.9712 50.6848 29.9252 50.6992 29.872L50.8839 29.1865Z" fill="#29CC7A"/>
<path d="M47.5507 25.2112C47.7101 24.8859 47.9461 24.6042 48.2381 24.39C48.5304 24.1758 48.8701 24.0357 49.2282 23.9815C49.2698 23.9813 49.2904 23.9398 49.2696 23.9191C48.9967 22.9236 49.1196 22.3628 49.4702 21.6352C49.4737 21.6299 49.476 21.6239 49.4768 21.6177C49.4776 21.6114 49.477 21.605 49.4751 21.599C49.473 21.593 49.4697 21.5875 49.4651 21.583C49.4607 21.5785 49.4553 21.5751 49.4493 21.573C48.2854 21.0784 47.847 20.2494 47.7206 19.6271C47.6997 19.5857 47.6373 19.5651 47.6167 19.6067C47.1009 20.6461 46.3953 20.6897 45.7931 20.6085C45.7516 20.6086 45.731 20.6502 45.7518 20.6709C46.3573 21.8315 45.9239 22.6631 45.3237 23.2461C45.3206 23.2542 45.319 23.263 45.3195 23.2717C45.3199 23.2805 45.3222 23.289 45.3262 23.2968C45.3301 23.3047 45.3356 23.3116 45.3424 23.3171C45.3491 23.3226 45.357 23.3267 45.3655 23.329C46.5285 23.533 47.1535 24.2991 47.4468 25.1908C47.4677 25.2322 47.53 25.2528 47.5507 25.2112Z" fill="#FFC619"/>
<path d="M50.2714 32.5716L49.0878 32.4092" stroke="black" stroke-miterlimit="10" stroke-linecap="round"/>
<path d="M52.4299 32.5028L53.0945 32.6046" stroke="black" stroke-miterlimit="10" stroke-linecap="round"/>
<path d="M47.6789 19.5857C48.1943 18.4218 48.1503 17.6124 48.0036 17.1562" stroke="black" stroke-miterlimit="10" stroke-linecap="round"/>
<path d="M49.3456 21.6148C49.6695 21.6635 50.0003 21.6418 50.3151 21.5513C50.6302 21.4608 50.9219 21.3036 51.1706 21.0904" stroke="black" stroke-miterlimit="10" stroke-linecap="round"/>
<path d="M47.5507 25.2112C47.5528 25.3656 47.5323 25.5197 47.4898 25.668" stroke="black" stroke-miterlimit="10" stroke-linecap="round"/>
<path d="M45.4276 23.2666C44.6613 23.8086 43.4986 23.7291 42.6884 23.4825" stroke="black" stroke-miterlimit="10" stroke-linecap="round"/>
<path d="M45.7931 20.6085C45.5007 20.0074 44.9589 19.3241 44.4601 19.0973" stroke="black" stroke-miterlimit="10" stroke-linecap="round"/>
<path d="M49.2697 23.919C49.5378 24.0611 49.8246 24.165 50.1216 24.2278" stroke="black" stroke-miterlimit="10" stroke-linecap="round"/>
<path d="M47.0419 21.7049C47.3989 23.0738 47.8553 22.9894 48.0616 22.5736C48.2679 22.1579 48.4117 21.6385 48.7439 21.679C49.0761 21.7195 48.9949 22.301 48.603 23.1324C48.2111 23.9639 47.5682 24.1526 46.9641 23.428C46.36 22.7033 46.3371 21.9977 46.3148 21.4996C46.2925 21.0015 46.8111 20.8754 47.0419 21.7049Z" fill="#C40655"/>
<path d="M46.2247 26.0248C46.4825 28.8885 45.0337 30.2628 44.5857 33.1079" stroke="white" stroke-miterlimit="10" stroke-linecap="round"/>
<path d="M49.5318 41.956C49.1545 40.7324 48.9817 38.4912 49.9928 36.5163" stroke="black" stroke-width="2" stroke-miterlimit="10" stroke-linecap="round"/>
<path d="M39.0349 30.2394L37.5004 30.7422" stroke="black" stroke-miterlimit="10" stroke-linecap="round"/>
<path d="M54.2905 30.0064L55.3292 30.2938" stroke="black" stroke-miterlimit="10" stroke-linecap="round"/>
</g>
<g clip-path="url(#clip4_8_8344)">
<rect x="10.5044" y="6.7868" width="29.1892" height="29.1892" rx="14.5946" transform="rotate(-0.173721 10.5044 6.7868)" fill="url(#paint0_linear_8_8344)"/>
<path d="M37.0187 18.372C38.5294 12.5543 39.2608 11.5211 42.7967 19.0094L37.0187 18.372Z" fill="#D4E1FF"/>
<path d="M22.5857 30.835L22.447 30.9552C24.5568 32.9328 27.7689 38.021 32.6305 37.7491C32.6305 37.7491 36.5825 44.9186 40.8085 44.1127C45.0344 43.306 48.1519 37.3444 48.1519 37.3444C49.2907 35.2867 50.0947 33.0608 50.5338 30.7503C50.4727 30.2153 50.2729 29.7988 49.8953 29.542C46.8718 27.5479 24.7842 29.222 22.5857 30.835Z" fill="#1C1B29"/>
<path d="M28.9528 16.095L33.3825 17.2716C34.6978 16.7046 36.1165 16.4168 37.5488 16.4265C44.2972 16.406 47.9066 21.8707 47.927 28.5957C47.9473 35.3216 44.3712 40.808 37.6228 40.8284C30.8737 40.8489 27.2844 35.3842 27.264 28.6584C27.257 27.668 27.3335 26.6788 27.4929 25.7013C27.9423 23.1205 27.8129 20.4707 27.1118 17.9456C27.0436 17.6903 27.0435 17.4216 27.1117 17.1663C27.1798 16.911 27.3137 16.6781 27.5001 16.4908C27.6864 16.3035 27.9187 16.1683 28.1736 16.0989C28.4285 16.0294 28.6972 16.0281 28.9528 16.095Z" fill="#B3CAFF"/>
<path d="M47.6978 31.5134C44.4269 32.9714 41.0481 31.4532 37.7872 29.5988C34.2276 27.5661 31.929 22.3948 30.9516 20.7513C29.9743 19.1069 28.5832 18.7945 27.6237 16.3972C27.397 16.5775 27.228 16.8201 27.1372 17.0951C27.0463 17.3702 27.0378 17.6657 27.1125 17.9456C27.8131 20.4709 27.943 23.1204 27.4928 25.7021C27.3335 26.6794 27.2569 27.6683 27.2639 28.6584C27.2843 35.3842 30.8936 40.8489 37.6227 40.8285C43.3594 40.8111 46.8011 36.8326 47.6978 31.5126L47.6978 31.5134Z" fill="#8DAEF7"/>
<path d="M47.0964 29.5103C47.1122 34.748 44.0089 39.0035 40.1775 39.0151C36.3469 39.0267 33.237 34.7901 33.2212 29.5524C33.1949 20.9028 38.5955 27.9691 42.4269 27.9575C46.2575 27.9459 47.1727 22.0907 47.0964 29.5103Z" fill="#FCFDFF"/>
<path d="M40.279 34.5814C40.651 34.549 40.9081 34.0275 40.8557 33.4161C40.8024 32.8047 40.4578 32.3357 40.0867 32.3674C39.7155 32.4006 39.4575 32.9221 39.5108 33.5327C39.5641 34.144 39.9079 34.6139 40.279 34.5814ZM44.8362 33.5543C44.9452 32.9505 44.7363 32.4071 44.3688 32.3415C44.0022 32.2751 43.6162 32.711 43.5071 33.3148C43.3989 33.9179 43.6079 34.4612 43.9745 34.5276C44.3411 34.594 44.7271 34.1581 44.8362 33.5543Z" fill="#1C1B29"/>
<path d="M60.355 94.583C57.5378 95.187 49.0776 87.1777 49.0776 87.1777C51.4221 94.471 51.8257 96.6523 52.2283 98.5355C52.631 100.419 52.3935 100.797 52.2392 102.127C52.0841 103.456 52.084 103.417 52.883 105.081C53.682 106.744 54.2022 107.914 54.3631 108.767C54.4241 109.262 54.4055 109.764 54.3081 110.254L18.8371 110.362C18.8371 110.362 18.6555 109.569 19.4033 107.364C20.1512 105.16 21.8725 103.33 22.8206 101.938C23.7694 100.546 23.7103 100.686 23.4506 100.111C22.2512 97.2973 24.1784 97.907 24.9796 93.6785C25.78 89.4501 25.9777 69.2926 27.7583 61.0546C29.5398 52.8158 32.2933 50.8628 32.4712 44.0576C29.1068 40.9338 20.7651 32.8044 22.447 30.9543C24.3577 32.7341 30.0769 33.5902 34.7415 33.5367C35.1507 33.5296 35.5517 33.6517 35.8874 33.8857C36.2231 34.1197 36.4765 34.4537 36.6114 34.8401C37.4126 37.2379 39.4319 41.9737 42.5864 41.3486C45.741 40.7243 48.0655 35.0826 48.715 33.0371C48.8519 32.5906 49.1377 32.2046 49.5249 31.9434C49.9473 31.6277 50.2923 31.2199 50.5338 30.751C50.9828 34.6575 44.5229 45.0327 44.5229 45.0327C44.5229 45.0327 46.1735 59.0742 49.4034 63.6866C52.6325 68.2998 61.6646 68.2724 61.8957 72.6761C62.1276 77.079 63.152 93.979 60.355 94.583Z" fill="#BD4070"/>
<path d="M32.9008 35.2081C30.558 35.0762 27.4012 34.6888 22.3319 32.1849C23.1541 35.138 29.6249 41.3879 32.4713 44.0576C32.4348 46.1683 32.0591 48.2594 31.3586 50.2509C33.9298 53.8736 37.0196 51.5033 37.6065 61.6989C37.8576 66.0431 41.0709 71.8062 44.4246 78.0455C47.7784 84.2847 48.2 72.7963 48.0438 67.1429C47.9549 64.0678 47.3287 60.2608 46.6619 56.6323C45.2366 51.1409 44.523 45.0327 44.523 45.0327C44.523 45.0327 49.0468 37.7579 50.263 33.112C49.9534 33.3057 49.7116 33.5909 49.5711 33.9273C48.3481 36.7071 46.9782 39.4199 45.467 42.0542C43.9065 44.6979 40.9927 46.0157 37.622 40.8284C34.2522 35.6403 35.4221 35.3595 32.9008 35.2081Z" fill="#A12C66"/>
<path d="M34.3403 25.4829C37.8393 27.1582 39.0568 29.2977 41.8554 29.2096C44.654 29.1216 45.7411 27.7691 46.8671 25.9608C46.4076 24.9698 45.1663 27.9492 42.4269 27.9575C39.6876 27.9658 36.1038 24.3068 34.3403 25.4829Z" fill="#8DAEF7"/>
</g>
<path d="M126.956 25.114L126.949 22.858L124.597 22.8652L124.593 21.5052L126.945 21.498L126.938 19.162L128.33 19.1578L128.337 21.4938L130.689 21.4867L130.693 22.8467L128.341 22.8538L128.348 25.1098L126.956 25.114Z" fill="#263238"/>
<path d="M143.832 25.3058L143.836 26.5858L138.092 26.6032L138.088 25.3232L140.36 25.3163L140.341 19.0763C140.245 19.2046 140.096 19.3437 139.894 19.4937C139.692 19.633 139.463 19.767 139.207 19.8958C138.952 20.0245 138.696 20.132 138.44 20.2181C138.184 20.2935 137.95 20.3316 137.737 20.3322L137.733 18.9882C137.967 18.9875 138.223 18.9227 138.5 18.7939C138.787 18.6544 139.064 18.4935 139.33 18.3114C139.597 18.1292 139.82 17.9579 140.001 17.7973C140.192 17.6368 140.304 17.5244 140.336 17.4603L141.776 17.456L141.8 25.3119L143.832 25.3058ZM151.035 25.2839L151.039 26.5639L145.295 26.5813L145.291 25.3013L147.563 25.2944L147.544 19.0545C147.448 19.1828 147.299 19.3219 147.097 19.4718C146.895 19.6111 146.666 19.7451 146.41 19.8739C146.155 20.0027 145.899 20.1101 145.643 20.1962C145.388 20.2717 145.153 20.3097 144.94 20.3104L144.936 18.9664C145.17 18.9657 145.426 18.9009 145.703 18.7721C145.991 18.6325 146.267 18.4717 146.534 18.2895C146.8 18.1074 147.023 17.9361 147.204 17.7755C147.396 17.6149 147.507 17.5026 147.539 17.4385L148.979 17.4341L149.003 25.2901L151.035 25.2839Z" fill="#263238"/>
<path d="M157.625 25.6839C157.019 25.6858 156.449 25.5895 155.916 25.3951C155.384 25.1914 154.925 24.8895 154.542 24.4893L155.015 23.6198C155.436 24.0106 155.857 24.2893 156.278 24.456C156.698 24.6227 157.128 24.7054 157.566 24.7041C158.07 24.7026 158.481 24.608 158.797 24.4204C159.114 24.2234 159.272 23.9383 159.271 23.5649C159.27 23.2943 159.185 23.0939 159.017 22.9637C158.858 22.8335 158.629 22.7269 158.33 22.6438C158.031 22.5514 157.676 22.4498 157.265 22.339C156.761 22.1912 156.336 22.0338 155.99 21.8669C155.644 21.6999 155.382 21.4907 155.204 21.2393C155.026 20.9878 154.936 20.6707 154.935 20.2881C154.933 19.8214 155.054 19.429 155.295 19.111C155.537 18.7836 155.868 18.5352 156.287 18.366C156.716 18.1967 157.201 18.1112 157.742 18.1096C158.284 18.1079 158.774 18.1904 159.213 18.3571C159.652 18.5238 160.031 18.7699 160.349 19.0957L159.792 19.9513C159.502 19.6536 159.184 19.4352 158.838 19.2962C158.492 19.1479 158.105 19.0745 157.675 19.0758C157.423 19.0765 157.176 19.1099 156.934 19.176C156.691 19.2327 156.491 19.3407 156.332 19.4998C156.174 19.6496 156.096 19.8646 156.096 20.1446C156.097 20.3779 156.158 20.5644 156.28 20.704C156.411 20.8343 156.598 20.9457 156.841 21.0383C157.093 21.1309 157.397 21.2326 157.752 21.3435C158.303 21.5005 158.78 21.6578 159.182 21.8152C159.593 21.9726 159.911 22.177 160.135 22.4283C160.36 22.6796 160.473 23.0293 160.475 23.4773C160.477 24.168 160.217 24.7101 159.696 25.1037C159.174 25.4879 158.484 25.6813 157.625 25.6839ZM165.734 25.1554C165.631 25.2023 165.491 25.2634 165.314 25.3386C165.137 25.4138 164.932 25.4798 164.699 25.5365C164.466 25.5932 164.218 25.622 163.957 25.6227C163.658 25.6236 163.383 25.5731 163.131 25.4712C162.878 25.36 162.677 25.1926 162.527 24.9691C162.377 24.7362 162.301 24.4471 162.3 24.1018L162.286 19.1878L161.292 19.1908L161.289 18.2248L162.283 18.2218L162.275 15.7858L163.507 15.7821L163.515 18.2181L165.153 18.2131L165.156 19.1791L163.518 19.184L163.531 23.72C163.551 23.9813 163.64 24.177 163.799 24.3072C163.958 24.4281 164.145 24.4882 164.36 24.4875C164.602 24.4868 164.826 24.4441 165.031 24.3595C165.236 24.2749 165.371 24.2138 165.437 24.1762L165.734 25.1554ZM166.798 22.5901L166.784 18.2081L168.016 18.2044L168.029 22.3484C168.031 23.095 168.164 23.6546 168.426 24.0272C168.689 24.3997 169.076 24.5852 169.59 24.5837C169.926 24.5826 170.248 24.5117 170.555 24.3707C170.872 24.2204 171.156 24.0096 171.407 23.7381C171.658 23.4667 171.853 23.1441 171.992 22.7704L171.978 18.1924L173.21 18.1887L173.228 24.0966C173.229 24.246 173.257 24.3579 173.313 24.4324C173.379 24.4975 173.482 24.5345 173.622 24.5434L173.625 25.4954C173.485 25.5145 173.373 25.5242 173.289 25.5244C173.214 25.534 173.139 25.5389 173.065 25.5391C172.831 25.5398 172.63 25.4704 172.462 25.331C172.294 25.1821 172.204 25.0004 172.194 24.7858L172.164 23.9319C171.848 24.4741 171.42 24.8954 170.88 25.1958C170.349 25.496 169.766 25.6471 169.131 25.6491C168.366 25.6514 167.786 25.3965 167.393 24.8843C166.999 24.3628 166.801 23.5981 166.798 22.5901ZM174.798 21.8519C174.796 21.1612 174.934 20.5308 175.212 19.9606C175.5 19.3811 175.89 18.9179 176.384 18.571C176.887 18.2242 177.46 18.0498 178.104 18.0478C178.692 18.046 179.22 18.1984 179.688 18.505C180.155 18.8116 180.52 19.1838 180.783 19.6217L180.77 15.2537L182.002 15.25L182.028 24.0699C182.029 24.2193 182.057 24.3312 182.114 24.4057C182.179 24.4708 182.282 24.5078 182.422 24.5168L182.425 25.4687C182.192 25.5068 182.01 25.526 181.879 25.5264C181.636 25.5271 181.421 25.4438 181.234 25.2764C181.056 25.1089 180.967 24.9225 180.966 24.7172L180.965 24.1012C180.677 24.5687 180.29 24.9385 179.806 25.2107C179.321 25.4828 178.818 25.6197 178.295 25.6213C177.791 25.6228 177.324 25.5262 176.894 25.3315C176.474 25.1275 176.104 24.8486 175.786 24.4949C175.477 24.1411 175.233 23.7405 175.054 23.2931C174.885 22.8363 174.799 22.3559 174.798 21.8519ZM180.793 22.9117L180.787 20.8117C180.674 20.4947 180.491 20.2106 180.238 19.9594C179.985 19.6988 179.7 19.4943 179.382 19.3459C179.074 19.1882 178.765 19.1098 178.457 19.1107C178.093 19.1119 177.762 19.1922 177.464 19.3518C177.175 19.502 176.924 19.7081 176.71 19.97C176.505 20.2227 176.348 20.5125 176.237 20.8395C176.126 21.1665 176.071 21.5073 176.072 21.862C176.073 22.226 176.135 22.5711 176.257 22.8974C176.389 23.2237 176.567 23.5125 176.792 23.7638C177.026 24.0151 177.292 24.2103 177.591 24.3494C177.9 24.4885 178.231 24.5575 178.586 24.5564C178.81 24.5557 179.038 24.513 179.272 24.4283C179.514 24.3436 179.742 24.2262 179.956 24.0762C180.171 23.9262 180.352 23.753 180.501 23.5566C180.65 23.3508 180.747 23.1358 180.793 22.9117ZM187.324 25.5939C186.773 25.5956 186.269 25.4991 185.811 25.3045C185.362 25.1005 184.969 24.8264 184.632 24.482C184.305 24.1284 184.047 23.7232 183.859 23.2664C183.68 22.8096 183.59 22.3245 183.588 21.8112C183.586 21.1205 183.743 20.4901 184.059 19.9198C184.374 19.3495 184.811 18.8908 185.37 18.5438C185.939 18.1967 186.587 18.0221 187.315 18.0199C188.052 18.0177 188.692 18.193 189.234 18.5461C189.786 18.8897 190.212 19.3458 190.513 19.9142C190.822 20.4733 190.978 21.0795 190.98 21.7328C190.98 21.8261 190.976 21.9195 190.967 22.0128C190.967 22.0968 190.963 22.1622 190.954 22.2089L184.892 22.2273C184.93 22.7031 185.062 23.1274 185.287 23.5001C185.522 23.8633 185.821 24.1518 186.186 24.3653C186.551 24.5696 186.943 24.671 187.363 24.6698C187.811 24.6684 188.231 24.5551 188.622 24.33C189.023 24.1047 189.297 23.8099 189.445 23.4455L190.51 23.7362C190.353 24.0914 190.116 24.4094 189.799 24.6904C189.492 24.9713 189.124 25.1918 188.695 25.3517C188.276 25.5117 187.818 25.5924 187.324 25.5939ZM184.847 21.3734L189.831 21.3583C189.792 20.8824 189.656 20.4628 189.421 20.0995C189.187 19.7362 188.887 19.4525 188.523 19.2482C188.158 19.044 187.756 18.9426 187.318 18.9439C186.888 18.9452 186.492 19.0491 186.129 19.2555C185.765 19.4619 185.467 19.7475 185.235 20.1122C185.012 20.4769 184.883 20.8973 184.847 21.3734ZM198.703 25.4194L197.471 25.4231L197.458 21.3351C197.456 20.5605 197.333 19.9962 197.089 19.6423C196.855 19.279 196.495 19.0981 196.01 19.0995C195.674 19.1005 195.338 19.1856 195.002 19.3546C194.676 19.5236 194.383 19.7531 194.123 20.0433C193.871 20.324 193.69 20.6512 193.579 21.0249L193.593 25.4349L192.361 25.4386L192.339 18.1307L193.459 18.1273L193.463 19.6953C193.658 19.3493 193.909 19.0499 194.217 18.797C194.524 18.544 194.873 18.347 195.265 18.2058C195.657 18.0646 196.067 17.9934 196.496 17.992C196.916 17.9908 197.267 18.069 197.547 18.2269C197.837 18.3753 198.061 18.5893 198.221 18.8688C198.39 19.139 198.507 19.4606 198.574 19.8338C198.65 20.2069 198.688 20.6127 198.69 21.0514L198.703 25.4194ZM204.329 25.0383C204.227 25.0853 204.087 25.1464 203.91 25.2216C203.733 25.2968 203.527 25.3628 203.294 25.4195C203.061 25.4762 202.814 25.5049 202.553 25.5057C202.254 25.5066 201.978 25.4561 201.726 25.3542C201.474 25.243 201.273 25.0756 201.123 24.8521C200.973 24.6192 200.897 24.3301 200.896 23.9847L200.881 19.0708L199.887 19.0738L199.884 18.1078L200.878 18.1048L200.871 15.6688L202.103 15.665L202.11 18.101L203.748 18.0961L203.751 19.0621L202.113 19.067L202.127 23.603C202.146 23.8643 202.236 24.06 202.395 24.1902C202.554 24.311 202.74 24.3711 202.955 24.3705C203.198 24.3698 203.422 24.3271 203.627 24.2425C203.832 24.1578 203.967 24.0968 204.032 24.0592L204.329 25.0383ZM207.979 25.5313C207.372 25.5331 206.802 25.4368 206.27 25.2424C205.737 25.0387 205.279 24.7368 204.895 24.3366L205.368 23.4672C205.789 23.8579 206.21 24.1366 206.631 24.3033C207.051 24.4701 207.481 24.5528 207.92 24.5514C208.424 24.5499 208.834 24.4553 209.151 24.2677C209.467 24.0707 209.625 23.7856 209.624 23.4123C209.623 23.1416 209.539 22.9412 209.37 22.811C209.211 22.6809 208.982 22.5742 208.683 22.4911C208.384 22.3987 208.029 22.2971 207.618 22.1863C207.114 22.0385 206.689 21.8812 206.343 21.7142C205.997 21.5473 205.735 21.3381 205.557 21.0866C205.379 20.8351 205.289 20.5181 205.288 20.1354C205.287 19.6687 205.407 19.2764 205.649 18.9583C205.89 18.6309 206.221 18.3826 206.64 18.2133C207.069 18.044 207.554 17.9585 208.096 17.9569C208.637 17.9552 209.127 18.0378 209.566 18.2044C210.005 18.3711 210.384 18.6173 210.703 18.943L210.145 19.7987C209.855 19.5009 209.537 19.2825 209.191 19.1436C208.845 18.9953 208.458 18.9218 208.028 18.9231C207.776 18.9239 207.529 18.9573 207.287 19.0233C207.044 19.0801 206.844 19.188 206.686 19.3472C206.528 19.497 206.449 19.7119 206.45 19.9919C206.45 20.2252 206.512 20.4117 206.633 20.5513C206.764 20.6816 206.951 20.793 207.194 20.8856C207.447 20.9782 207.75 21.0799 208.105 21.1909C208.657 21.3479 209.133 21.5051 209.535 21.6625C209.946 21.82 210.264 22.0243 210.489 22.2756C210.713 22.527 210.826 22.8766 210.828 23.3246C210.83 24.0153 210.57 24.5574 210.049 24.951C209.527 25.3352 208.837 25.5287 207.979 25.5313Z" fill="#263238"/>
<defs>
<linearGradient id="paint0_linear_8_8344" x1="25.099" y1="36.1084" x2="25.099" y2="15.2001" gradientUnits="userSpaceOnUse">
<stop stop-color="#7196FF"/>
<stop offset="1" stop-color="#2A5EE8"/>
</linearGradient>
<clipPath id="clip0_8_8344">
<rect x="89.3104" y="5.0885" width="29.1892" height="29.1892" rx="14.5946" transform="rotate(-0.173721 89.3104 5.0885)" fill="white"/>
</clipPath>
<clipPath id="clip1_8_8344">
<rect x="73.7429" y="5.13571" width="29.1892" height="29.1892" rx="14.5946" transform="rotate(-0.173721 73.7429 5.13571)" fill="white"/>
</clipPath>
<clipPath id="clip2_8_8344">
<rect x="52.3406" y="6.17352" width="29.1892" height="29.1892" rx="14.5946" transform="rotate(-0.173721 52.3406 6.17352)" fill="white"/>
</clipPath>
<clipPath id="clip3_8_8344">
<rect x="31.4232" y="6.72339" width="29.1892" height="29.1892" rx="14.5946" transform="rotate(-0.173721 31.4232 6.72339)" fill="white"/>
</clipPath>
<clipPath id="clip4_8_8344">
<rect x="10.5044" y="6.7868" width="29.1892" height="29.1892" rx="14.5946" transform="rotate(-0.173721 10.5044 6.7868)" fill="white"/>
</clipPath>
</defs>
</svg>
