<svg width="255" height="40" viewBox="0 0 255 40" fill="none" xmlns="http://www.w3.org/2000/svg">
<path d="M54.0087 35.9592L54.0087 20.0946C54.0087 20.0946 41.7705 21.655 31.2334 26.8802C20.6962 21.655 8.45805 20.0946 8.45805 20.0946L8.45805 35.9592C4.86693 36.763 1.96095 37.7324 2.41136e-09 38.8436C6.61524 36.763 18.121 35.3681 31.2097 35.3681C44.2985 35.3681 55.8043 36.7394 62.4195 38.8436C60.4822 37.7324 57.5998 36.763 54.0087 35.9592Z" fill="#0B7077"/>
<path d="M11.7894 18.3923L11.7894 20.6384C16.1365 21.4659 24.0748 23.3101 31.2334 26.8802C22.7754 20.2365 11.7894 18.3923 11.7894 18.3923Z" fill="#0B7077"/>
<path d="M50.701 18.3923C50.701 18.3923 39.715 20.2365 31.257 26.8802C38.4156 23.3338 46.3539 21.4659 50.701 20.6384L50.701 18.3923Z" fill="#0B7077"/>
<path d="M31.2571 18.605C30.8082 19.598 30.123 20.4728 29.3198 21.1584L31.2335 24.4921L33.1944 21.1584C32.3675 20.4728 31.706 19.598 31.2571 18.605Z" fill="#0B7077"/>
<path d="M25.4452 16.1225C26.721 16.1225 27.7841 15.0822 27.7841 13.7818C27.7841 12.5051 26.7446 11.4412 25.4452 11.4412C24.1694 11.4412 23.1062 12.4815 23.1062 13.7818C23.1062 15.0822 24.1457 16.1225 25.4452 16.1225ZM24.6655 12.1505C25.1617 12.1505 25.5633 12.5524 25.5633 13.0489C25.5633 13.5454 25.1617 13.9473 24.6655 13.9473C24.1694 13.9473 23.7677 13.5454 23.7677 13.0489C23.7677 12.5524 24.1694 12.1505 24.6655 12.1505Z" fill="#0B7077"/>
<path d="M34.7064 13.7818C34.7064 15.0586 35.7459 16.1225 37.0217 16.1225C38.2975 16.1225 39.3606 15.0822 39.3606 13.7818C39.3606 12.5051 38.3211 11.4412 37.0217 11.4412C35.7695 11.4648 34.7064 12.5051 34.7064 13.7818ZM37.3052 13.0489C37.3052 13.5454 36.9036 13.9473 36.4074 13.9473C35.9113 13.9473 35.5096 13.5454 35.5096 13.0489C35.5096 12.5524 35.9113 12.1505 36.4074 12.1505C36.9036 12.1505 37.3052 12.5524 37.3052 13.0489Z" fill="#0B7077"/>
<path d="M20.9798 18.3686C22.1375 19.5035 23.7204 20.1891 25.4451 20.1891C27.9967 20.1891 30.2175 18.676 31.257 16.5008C32.2729 18.676 34.4938 20.1891 37.069 20.1891C38.8173 20.1891 40.3766 19.4798 41.5343 18.3686C42.0304 19.0779 42.4557 19.8345 42.8101 20.6147C44.2513 20.0709 45.5743 19.669 46.732 19.338C45.9759 17.7775 44.7946 16.3826 43.3062 15.2004C43.4007 14.7512 43.4716 14.2547 43.4716 13.7818C43.4716 12.8361 43.259 11.9377 42.8809 11.1101C42.4321 9.78613 41.7469 8.55668 40.8728 7.4691L40.8255 1.15637L35.5806 3.61526C34.2103 3.09511 32.7455 2.83504 31.257 2.83504C29.7686 2.83504 28.3038 3.09511 26.9335 3.61526L21.6649 1.15637L21.6177 7.4691C20.7672 8.55668 20.082 9.76249 19.6331 11.0629C19.2551 11.8904 19.0188 12.8125 19.0188 13.7818C19.0188 14.2783 19.0661 14.7512 19.1842 15.2004C17.6958 16.3826 16.5381 17.7775 15.7821 19.338C16.9161 19.669 18.2628 20.0946 19.704 20.6147C20.0584 19.8345 20.4836 19.0779 20.9798 18.3686ZM42.1013 13.7818C42.1013 16.5717 39.8332 18.8415 37.0454 18.8415C34.2575 18.8415 31.9894 16.5717 31.9894 13.7818C31.9894 10.9919 34.2575 8.72219 37.0454 8.72219C39.8332 8.74583 42.1013 11.0156 42.1013 13.7818ZM31.2334 4.1827C34.4465 4.1827 37.3761 5.57764 39.3843 7.82375C38.6519 7.54003 37.8486 7.37453 37.0217 7.37453C34.4701 7.37453 32.2493 8.88769 31.2098 11.0629C30.1939 8.88769 27.973 7.37453 25.3978 7.37453C24.5709 7.37453 23.7676 7.54003 23.0589 7.82375C25.1143 5.57764 28.0203 4.1827 31.2334 4.1827ZM25.4451 8.74583C28.2329 8.74583 30.501 11.0156 30.501 13.8055C30.501 16.5954 28.2329 18.8651 25.4451 18.8651C22.6572 18.8651 20.3891 16.5954 20.3891 13.8055C20.3891 11.0156 22.6572 8.74583 25.4451 8.74583Z" fill="#0B7077"/>
<path d="M92.9594 25.45C92.9594 26.15 92.7094 26.75 92.2094 27.25C91.7094 27.75 91.1094 28 90.4094 28H85.4894C83.3894 28 81.5894 27.26 80.0894 25.78C78.6094 24.28 77.8694 22.48 77.8694 20.38C77.8694 18.28 78.6094 16.49 80.0894 15.01C81.5694 13.53 83.3694 12.79 85.4894 12.79H90.4094C91.1094 12.79 91.7094 13.04 92.2094 13.54C92.7094 14.04 92.9594 14.64 92.9594 15.34C92.9594 16.04 92.7094 16.64 92.2094 17.14C91.7094 17.64 91.1094 17.89 90.4094 17.89H85.4894C84.7894 17.89 84.1894 18.14 83.6894 18.64C83.2094 19.12 82.9694 19.7 82.9694 20.38C82.9694 21.06 83.2094 21.65 83.6894 22.15C84.1894 22.65 84.7894 22.9 85.4894 22.9H90.4094C91.1094 22.9 91.7094 23.15 92.2094 23.65C92.7094 24.15 92.9594 24.75 92.9594 25.45ZM109.796 20.38C109.796 22.48 109.056 24.28 107.576 25.78C106.096 27.26 104.306 28 102.206 28C100.106 28 98.3062 27.26 96.8062 25.78C95.3262 24.28 94.5862 22.48 94.5862 20.38C94.5862 18.28 95.3262 16.49 96.8062 15.01C98.3062 13.53 100.106 12.79 102.206 12.79C104.306 12.79 106.096 13.53 107.576 15.01C109.056 16.49 109.796 18.28 109.796 20.38ZM104.696 20.38C104.696 19.68 104.456 19.09 103.976 18.61C103.496 18.13 102.906 17.89 102.206 17.89C101.506 17.89 100.906 18.14 100.406 18.64C99.9262 19.12 99.6862 19.7 99.6862 20.38C99.6862 21.06 99.9362 21.65 100.436 22.15C100.936 22.65 101.526 22.9 102.206 22.9C102.886 22.9 103.466 22.66 103.946 22.18C104.446 21.68 104.696 21.08 104.696 20.38ZM126.982 20.38C126.982 22.48 126.232 24.28 124.732 25.78C123.252 27.26 121.462 28 119.362 28C117.262 28 115.462 27.26 113.962 25.78C112.482 24.28 111.742 22.48 111.742 20.38V15.31C111.742 14.61 111.992 14.01 112.492 13.51C112.992 13.01 113.592 12.76 114.292 12.76C114.992 12.76 115.592 13.01 116.092 13.51C116.592 14.01 116.842 14.61 116.842 15.31V20.38C116.842 21.06 117.092 21.65 117.592 22.15C118.092 22.65 118.682 22.9 119.362 22.9C120.042 22.9 120.622 22.66 121.102 22.18C121.602 21.68 121.852 21.08 121.852 20.38V15.34C121.852 14.64 122.102 14.04 122.602 13.54C123.102 13.04 123.702 12.79 124.402 12.79C125.102 12.79 125.702 13.04 126.202 13.54C126.722 14.04 126.982 14.64 126.982 15.34V20.38ZM142.631 15.31C142.631 16.01 142.381 16.61 141.881 17.11C141.381 17.61 140.781 17.86 140.081 17.86H136.331C135.631 17.86 135.031 18.11 134.531 18.61C134.051 19.09 133.811 19.68 133.811 20.38V25.45C133.811 26.15 133.561 26.75 133.061 27.25C132.561 27.75 131.961 28 131.261 28C130.541 28 129.931 27.75 129.431 27.25C128.951 26.75 128.711 26.15 128.711 25.45V20.38C128.711 18.28 129.451 16.49 130.931 15.01C132.431 13.51 134.231 12.76 136.331 12.76H140.081C140.781 12.76 141.381 13.01 141.881 13.51C142.381 14.01 142.631 14.61 142.631 15.31ZM159.529 15.31C159.529 16.01 159.279 16.61 158.779 17.11C158.279 17.61 157.679 17.86 156.979 17.86H151.519C150.719 17.86 150.099 18.15 149.659 18.73C149.319 19.25 148.979 19.78 148.639 20.32C148.179 20.9 147.549 21.19 146.749 21.19C146.049 21.19 145.449 20.94 144.949 20.44C144.449 19.94 144.199 19.34 144.199 18.64C144.199 18.36 144.249 18.07 144.349 17.77C144.849 16.29 145.769 15.09 147.109 14.17C148.469 13.23 149.939 12.76 151.519 12.76H156.979C157.679 12.76 158.279 13.01 158.779 13.51C159.279 14.01 159.529 14.61 159.529 15.31ZM159.499 22.12C159.499 22.42 159.449 22.71 159.349 22.99C158.829 24.47 157.899 25.68 156.559 26.62C155.239 27.54 153.789 28 152.209 28H146.749C146.049 28 145.449 27.75 144.949 27.25C144.449 26.75 144.199 26.15 144.199 25.45C144.199 24.75 144.449 24.15 144.949 23.65C145.449 23.15 146.049 22.9 146.749 22.9H152.209C153.309 22.9 154.089 22.35 154.549 21.25C155.009 20.13 155.809 19.57 156.949 19.57C157.649 19.57 158.249 19.82 158.749 20.32C159.249 20.82 159.499 21.42 159.499 22.12ZM176.592 25.45C176.592 26.15 176.342 26.75 175.842 27.25C175.342 27.75 174.742 28 174.042 28H169.032C166.932 28 165.132 27.26 163.632 25.78C162.152 24.28 161.412 22.48 161.412 20.38C161.412 18.28 162.152 16.49 163.632 15.01C165.132 13.51 166.932 12.76 169.032 12.76C170.812 12.76 172.382 13.31 173.742 14.41C175.122 15.51 176.022 16.93 176.442 18.67C176.482 18.79 176.502 18.98 176.502 19.24C176.502 19.94 176.252 20.54 175.752 21.04C175.252 21.54 174.652 21.79 173.952 21.79C172.672 21.79 171.832 21.14 171.432 19.84C171.052 18.54 170.252 17.89 169.032 17.89C168.332 17.89 167.732 18.14 167.232 18.64C166.752 19.12 166.512 19.7 166.512 20.38C166.512 21.06 166.752 21.65 167.232 22.15C167.732 22.65 168.332 22.9 169.032 22.9H174.042C174.742 22.9 175.342 23.15 175.842 23.65C176.342 24.15 176.592 24.75 176.592 25.45ZM190.656 10.21C190.656 10.91 190.406 11.51 189.906 12.01C189.406 12.51 188.806 12.76 188.106 12.76C187.406 12.76 186.806 12.51 186.306 12.01C185.806 11.51 185.556 10.91 185.556 10.21C185.556 9.51 185.806 8.91 186.306 8.41C186.806 7.91 187.406 7.66 188.106 7.66C188.806 7.66 189.406 7.91 189.906 8.41C190.406 8.91 190.656 9.51 190.656 10.21ZM190.656 25.54C190.656 27.62 189.906 29.4 188.406 30.88C186.926 32.38 185.136 33.13 183.036 33.13H181.056C180.356 33.13 179.756 32.88 179.256 32.38C178.756 31.88 178.506 31.28 178.506 30.58C178.506 29.88 178.756 29.28 179.256 28.78C179.756 28.28 180.356 28.03 181.056 28.03H183.036C183.736 28.03 184.326 27.79 184.806 27.31C185.306 26.81 185.556 26.22 185.556 25.54V17.2C185.556 16.5 185.806 15.9 186.306 15.4C186.806 14.9 187.406 14.65 188.106 14.65C188.806 14.65 189.406 14.9 189.906 15.4C190.406 15.9 190.656 16.5 190.656 17.2V25.54ZM207.942 25.45C207.942 26.15 207.692 26.75 207.192 27.25C206.692 27.75 206.092 28 205.392 28H200.322C198.222 28 196.432 27.26 194.952 25.78C193.472 24.28 192.732 22.48 192.732 20.38C192.732 18.28 193.472 16.49 194.952 15.01C196.432 13.53 198.222 12.79 200.322 12.79C202.422 12.79 204.212 13.53 205.692 15.01C207.192 16.49 207.942 18.28 207.942 20.38V25.45ZM202.842 22.9V20.38C202.842 19.7 202.592 19.12 202.092 18.64C201.592 18.14 201.002 17.89 200.322 17.89C199.622 17.89 199.032 18.13 198.552 18.61C198.072 19.09 197.832 19.68 197.832 20.38C197.832 21.08 198.072 21.68 198.552 22.18C199.032 22.66 199.622 22.9 200.322 22.9H202.842Z" fill="#0B7077"/>
</svg>
